<?xml version="1.0" encoding="UTF-8"?>
<svg width="133px" height="19px" viewBox="0 0 133 19" version="1.1" xmlns="http://www.w3.org/2000/svg" xmlns:xlink="http://www.w3.org/1999/xlink">
    <!-- Generator: Sketch 48.2 (47327) - http://www.bohemiancoding.com/sketch -->
    <title>logo _horizontal/white</title>
    <desc>Created with Sketch.</desc>
    <defs></defs>
    <g id="Symbols" stroke="none" stroke-width="1" fill="none" fill-rule="evenodd">
        <g id="logo-_horizontal/white" fill="#FFFFFF">
            <g id="logo-_horizontal">
                <path d="M67.7262057,15.9346547 L70.6069676,11.8577208 C71.9789486,13.1622679 74.036739,14.1952585 76.5061962,14.1952585 C77.5488438,14.1952585 78.5364819,13.9235226 78.5364819,13.2167585 C78.5364819,11.477183 68.3298629,13.244183 68.3298629,6.09623962 C68.3298629,3.0248717 70.9087962,0.0897301887 75.9298629,0.0897301887 C78.9206438,0.0897301887 81.6094152,0.932362264 83.6947105,2.61726792 L80.7314343,6.5038434 C79.140139,5.30809811 77.0823486,4.7099566 75.3537105,4.7099566 C74.2562343,4.7099566 73.9544057,5.0634283 73.9544057,5.52552264 C73.9544057,7.23767358 84.133701,5.76983396 84.133701,12.5101736 C84.133701,16.5053717 81.14292,18.8154849 76.2316914,18.8154849 C72.3357867,18.8154849 69.6741581,17.6740509 67.7262057,15.9346547" id="Fill-1"></path>
                <path d="M67.8463581,15.9209425 C69.9911867,17.8080368 72.7353295,18.7257726 76.2316914,18.7257726 C81.1231962,18.7257726 84.0432248,16.402216 84.0432248,12.5102632 C84.0432248,8.1026217 79.5642914,7.25371604 76.6006533,6.69214057 C75.0118914,6.39100849 73.8639295,6.17340472 73.8639295,5.52543302 C73.8639295,4.91635755 74.3512343,4.62042358 75.3537105,4.62042358 C77.2151676,4.62042358 79.2114343,5.27628208 80.71352,6.37864057 L83.5698533,2.63241415 C81.5484343,1.02745189 78.9088819,0.179442453 75.9298629,0.179442453 C70.7701867,0.179442453 68.4201581,3.24650849 68.4201581,6.09615 C68.4201581,10.807433 72.9493962,11.5880462 75.9463295,12.1046311 C77.50252,12.3729613 78.6269581,12.5667255 78.6269581,13.2166689 C78.6269581,13.8856123 77.8340248,14.2847915 76.5061962,14.2847915 C73.5611962,14.2847915 71.5801295,12.8825557 70.620901,11.994216 L67.8463581,15.9209425 Z M76.2316914,18.9050179 C72.6558914,18.9050179 69.8538438,17.9551972 67.6655867,16.0012443 L67.6062343,15.9481877 L70.5933962,11.7205085 L70.6695771,11.7931028 C71.5779581,12.6567066 73.5438248,14.1055462 76.5061962,14.1055462 C77.4438914,14.1055462 78.4460057,13.8719896 78.4460057,13.2166689 C78.4460057,12.7174708 77.3291676,12.5249613 75.9153867,12.2811877 C72.8585581,11.7543858 68.2392057,10.9581783 68.2392057,6.09615 C68.2392057,3.16011226 70.6458724,0.000197169811 75.9298629,0.000197169811 C78.98452,0.000197169811 81.6892152,0.881187736 83.7518914,2.54798962 L83.8195676,2.60248019 L80.7489867,6.62958396 L80.6767867,6.57527264 C79.197139,5.46341415 77.2072057,4.79966887 75.3537105,4.79966887 C74.1805962,4.79966887 74.0448819,5.21390472 74.0448819,5.52543302 C74.0448819,6.02516887 75.1877771,6.24169717 76.6346724,6.51594245 C79.656939,7.08881038 84.2241771,7.95456509 84.2241771,12.5102632 C84.2241771,16.5144236 81.2364724,18.9050179 76.2316914,18.9050179 Z" id="Fill-3"></path>
                <polygon id="Fill-5" points="86.4952381 18.8296453 86.4952381 0.725871698 100.247619 0.725871698 100.247619 5.38624906 91.9238095 5.38624906 91.9238095 7.17870189 100.066667 7.17870189 100.066667 12.0183245 91.9238095 12.0183245 91.9238095 13.9900226 100.247619 13.9900226 100.247619 18.8296453"></polygon>
                <path d="M86.6761905,18.6504 L100.247619,18.6504 L100.247619,13.9900226 L91.9238095,13.9900226 L91.9238095,11.8390792 L100.066667,11.8390792 L100.066667,7.17870189 L91.9238095,7.17870189 L91.9238095,5.20700377 L100.247619,5.20700377 L100.247619,0.725871698 L86.6761905,0.725871698 L86.6761905,18.6504 Z M100.428571,18.8296453 L86.4952381,18.8296453 L86.4952381,0.546626415 L100.428571,0.546626415 L100.428571,5.38624906 L92.1047619,5.38624906 L92.1047619,6.9994566 L100.247619,6.9994566 L100.247619,12.0183245 L92.1047619,12.0183245 L92.1047619,13.8107774 L100.428571,13.8107774 L100.428571,18.8296453 Z" id="Fill-7"></path>
                <polygon id="Fill-9" points="103.504762 18.8296453 103.504762 0.725871698 108.933333 0.725871698 108.933333 13.9900226 115.990476 13.9900226 115.990476 18.8296453"></polygon>
                <path d="M103.685714,18.6504 L115.990476,18.6504 L115.990476,13.9900226 L108.933333,13.9900226 L108.933333,0.725871698 L103.685714,0.725871698 L103.685714,18.6504 Z M116.171429,18.8296453 L103.504762,18.8296453 L103.504762,0.546626415 L109.114286,0.546626415 L109.114286,13.8107774 L116.171429,13.8107774 L116.171429,18.8296453 Z" id="Fill-11"></path>
                <polygon id="Fill-13" points="118.704762 18.8296453 118.704762 0.725871698 132.819048 0.725871698 132.819048 5.38624906 124.314286 5.38624906 124.314286 7.17870189 132.457143 7.17870189 132.457143 12.0183245 124.314286 12.0183245 124.314286 18.8296453"></polygon>
                <path d="M118.885714,18.6504 L124.314286,18.6504 L124.314286,11.8390792 L132.457143,11.8390792 L132.457143,7.17870189 L124.314286,7.17870189 L124.314286,5.20700377 L132.819048,5.20700377 L132.819048,0.725871698 L118.885714,0.725871698 L118.885714,18.6504 Z M124.495238,18.8296453 L118.704762,18.8296453 L118.704762,0.546626415 L133,0.546626415 L133,5.38624906 L124.495238,5.38624906 L124.495238,6.9994566 L132.638095,6.9994566 L132.638095,12.0183245 L124.495238,12.0183245 L124.495238,18.8296453 Z" id="Fill-15"></path>
                <path d="M11.5513305,13.0176708 C11.5513305,12.3653972 11.0573305,11.839133 10.2618638,11.839133 L5.6095781,11.839133 L5.6095781,14.1693217 L10.2618638,14.1693217 C11.0573305,14.1693217 11.5513305,13.6971896 11.5513305,13.0176708 Z M11.1946733,6.25546321 C11.1946733,5.63007642 10.6733495,5.20705755 10.0970162,5.20705755 L5.6095781,5.20705755 L5.6095781,7.35800094 L10.0970162,7.35800094 C10.6733495,7.35800094 11.1946733,6.90773679 11.1946733,6.25546321 Z M5.42857143e-05,18.8296991 L5.42857143e-05,0.725925472 L11.3868448,0.725925472 C15.1729114,0.725925472 16.8193971,3.04410472 16.8193971,5.16403868 C16.8193971,7.41984057 15.474921,8.85075566 13.6914543,9.23111415 C15.6669114,9.53027453 17.1758733,11.4483783 17.1758733,13.785916 C17.1758733,16.3134538 15.4474162,18.8296991 11.7708257,18.8296991 L5.42857143e-05,18.8296991 Z" id="Fill-17"></path>
                <path d="M5.79047619,7.17870189 L10.0969619,7.17870189 C10.5922286,7.17870189 11.1043238,6.79977736 11.1043238,6.16578679 C11.1043238,5.56549434 10.5922286,5.20700377 10.0969619,5.20700377 L5.79047619,5.20700377 L5.79047619,7.17870189 Z M10.0969619,7.35794717 L5.60952381,7.35794717 L5.60952381,5.02775849 L10.0969619,5.02775849 C10.7632286,5.02775849 11.2852762,5.52767358 11.2852762,6.16578679 C11.2852762,6.8343717 10.7632286,7.35794717 10.0969619,7.35794717 Z M5.79047619,13.9900226 L10.2618095,13.9900226 C10.9901429,13.9900226 11.4608,13.5730981 11.4608,12.9279943 C11.4608,12.286834 10.9677048,11.8390792 10.2618095,11.8390792 L5.79047619,11.8390792 L5.79047619,13.9900226 Z M10.2618095,14.1692679 L5.60952381,14.1692679 L5.60952381,11.659834 L10.2618095,11.659834 C11.0614381,11.659834 11.6417524,12.1932679 11.6417524,12.9279943 C11.6417524,13.6704283 11.0871333,14.1692679 10.2618095,14.1692679 Z M0.180952381,18.6504 L11.7707714,18.6504 C15.4421143,18.6504 17.0853429,16.1791453 17.0853429,13.7299377 C17.0853429,11.4605132 15.652381,9.59636226 13.6776476,9.29738113 L13.1914286,9.22371132 L13.6724,9.12118302 C15.5577429,8.7189566 16.7288667,7.18551321 16.7288667,5.11917358 C16.7288667,3.00336226 15.0570476,0.725871698 11.3867905,0.725871698 L0.180952381,0.725871698 L0.180952381,18.6504 Z M11.7707714,18.8296453 L0,18.8296453 L0,0.546626415 L11.3867905,0.546626415 C15.1813619,0.546626415 16.909819,2.91696604 16.909819,5.11917358 C16.909819,7.13335283 15.8393048,8.66303208 14.0889524,9.19861698 C15.9516762,9.67917358 17.2662952,11.5202019 17.2662952,13.7299377 C17.2662952,16.2682302 15.5671524,18.8296453 11.7707714,18.8296453 Z" id="Fill-19"></path>
                <polygon id="Fill-21" points="19.1809524 18.8296453 19.1809524 0.725871698 33.1142857 0.725871698 33.1142857 5.38624906 24.6095238 5.38624906 24.6095238 7.17870189 32.752381 7.17870189 32.752381 12.0183245 24.6095238 12.0183245 24.6095238 13.9900226 33.1142857 13.9900226 33.1142857 18.8296453"></polygon>
                <path d="M19.3619048,18.6504 L33.1142857,18.6504 L33.1142857,13.9900226 L24.6095238,13.9900226 L24.6095238,11.8390792 L32.752381,11.8390792 L32.752381,7.17870189 L24.6095238,7.17870189 L24.6095238,5.20700377 L33.1142857,5.20700377 L33.1142857,0.725871698 L19.3619048,0.725871698 L19.3619048,18.6504 Z M33.2952381,18.8296453 L19.1809524,18.8296453 L19.1809524,0.546626415 L33.2952381,0.546626415 L33.2952381,5.38624906 L24.7904762,5.38624906 L24.7904762,6.9994566 L32.9333333,6.9994566 L32.9333333,12.0183245 L24.7904762,12.0183245 L24.7904762,13.8107774 L33.2952381,13.8107774 L33.2952381,18.8296453 Z" id="Fill-23"></path>
                <path d="M34.352959,15.9347623 L37.233721,11.8578283 C38.6057019,13.1623755 40.6634924,14.195366 43.1329495,14.195366 C44.1755971,14.195366 45.1632352,13.9234509 45.1632352,13.216866 C45.1632352,11.4772906 34.9566162,13.2439321 34.9566162,6.09598868 C34.9566162,3.0248 37.5355495,0.0896584906 42.5566162,0.0896584906 C45.5473971,0.0896584906 48.2361686,0.932111321 50.3214638,2.61719623 L47.3581876,6.5037717 C45.7668924,5.30802642 43.7091019,4.70988491 41.9804638,4.70988491 C40.8829876,4.70988491 40.581159,5.0633566 40.581159,5.52545094 C40.581159,7.23760189 50.7604543,5.76976226 50.7604543,12.5102811 C50.7604543,16.5054792 47.7696733,18.8155925 42.8584448,18.8155925 C38.96254,18.8155925 36.3009114,17.6741585 34.352959,15.9347623" id="Fill-25"></path>
                <path d="M34.4731114,15.9210321 C36.618121,17.8081264 39.3620829,18.7258623 42.8584448,18.7258623 C47.7499495,18.7258623 50.6699781,16.4023057 50.6699781,12.5103528 C50.6699781,8.10271132 46.1910448,7.25380566 43.2272257,6.69205094 C41.6386448,6.39091887 40.4906829,6.17331509 40.4906829,5.5253434 C40.4906829,4.91626792 40.9779876,4.62033396 41.9804638,4.62033396 C43.8421019,4.62033396 45.8383686,5.27619245 47.3402733,6.37855094 L50.1966067,2.63232453 C48.1751876,1.02718302 45.5354543,0.17935283 42.5566162,0.17935283 C37.39694,0.17935283 35.0469114,3.24641887 35.0469114,6.09606038 C35.0469114,10.8073434 39.5761495,11.5881358 42.5730829,12.1047208 C44.1292733,12.3730509 45.2537114,12.5668151 45.2537114,13.2167585 C45.2537114,13.8857019 44.4607781,14.2850604 43.1329495,14.2850604 C40.1879495,14.2850604 38.2067019,12.8828245 37.2476543,11.9943057 L34.4731114,15.9210321 Z M42.8584448,18.9051075 C39.2828257,18.9051075 36.4807781,17.9552868 34.29234,16.001334 L34.2329876,15.9482774 L37.2201495,11.7205981 L37.2963305,11.7931925 C38.2045305,12.6567962 40.1705781,14.1058151 43.1329495,14.1058151 C44.0706448,14.1058151 45.072759,13.8722585 45.072759,13.2167585 C45.072759,12.7175604 43.955921,12.5250509 42.54214,12.2812774 C39.4853114,11.7542962 34.865959,10.9580887 34.865959,6.09606038 C34.865959,3.16002264 37.2726257,0.00010754717 42.5566162,0.00010754717 C45.6110924,0.00010754717 48.3159686,0.881098113 50.3786448,2.54772075 L50.446321,2.60221132 L47.37574,6.62949434 L47.30354,6.57518302 C45.8240733,5.46332453 43.83414,4.79957925 41.9804638,4.79957925 C40.8073495,4.79957925 40.6716352,5.21381509 40.6716352,5.5253434 C40.6716352,6.02507925 41.8143495,6.24178679 43.2612448,6.51585283 C46.2836924,7.08872075 50.8509305,7.95447547 50.8509305,12.5103528 C50.8509305,16.5146925 47.8632257,18.9051075 42.8584448,18.9051075 Z" id="Fill-27"></path>
                <polygon id="Fill-29" points="55.7333333 18.8296453 55.7333333 5.38624906 50.847619 5.38624906 50.847619 0.725871698 66.047619 0.725871698 66.047619 5.38624906 61.1619048 5.38624906 61.1619048 18.8296453"></polygon>
                <path d="M55.9142857,18.6504 L61.1619048,18.6504 L61.1619048,5.20700377 L66.047619,5.20700377 L66.047619,0.725871698 L51.0285714,0.725871698 L51.0285714,5.20700377 L55.9142857,5.20700377 L55.9142857,18.6504 Z M61.3428571,18.8296453 L55.7333333,18.8296453 L55.7333333,5.38624906 L50.847619,5.38624906 L50.847619,0.546626415 L66.2285714,0.546626415 L66.2285714,5.38624906 L61.3428571,5.38624906 L61.3428571,18.8296453 Z" id="Fill-31"></path>
                <path d="M127.069973,17.9984132 C127.069973,18.2701491 126.843602,18.4875736 126.569278,18.4875736 C126.294773,18.4875736 126.075278,18.2701491 126.075278,17.9984132 C126.075278,17.7264981 126.294773,17.5024415 126.569278,17.5024415 C126.843602,17.5024415 127.069973,17.7264981 127.069973,17.9984132" id="Fill-33"></path>
                <path d="M126.569296,17.5919925 C126.346906,17.5919925 126.165772,17.7742849 126.165772,17.9985208 C126.165772,18.2225774 126.342925,18.3980585 126.569296,18.3980585 C126.795487,18.3980585 126.979515,18.2188132 126.979515,17.9985208 C126.979515,17.7742849 126.795487,17.5919925 126.569296,17.5919925 M126.569296,18.5773038 C126.24702,18.5773038 125.98482,18.3175774 125.98482,17.9985208 C125.98482,17.6755208 126.24702,17.4127472 126.569296,17.4127472 C126.895191,17.4127472 127.160468,17.6755208 127.160468,17.9985208 C127.160468,18.3175774 126.895191,18.5773038 126.569296,18.5773038" id="Fill-35"></path>
                <path d="M128.657143,17.0371925 L129.561905,17.0371925 L129.561905,17.3528434 C129.561905,18.0459849 129.016695,18.4876453 128.385714,18.4876453 C127.740981,18.4876453 127.209524,18.0596075 127.209524,17.3528434 L127.209524,14.7573717 C127.209524,14.0507868 127.761429,13.5955038 128.413219,13.5955038 C129.0442,13.5955038 129.561905,14.0167302 129.561905,14.7030604 L129.561905,15.7824755 L128.657143,15.7824755 L128.657143,14.7437491 C128.657143,14.5127019 128.5882,14.3700226 128.389152,14.3700226 C128.190286,14.3700226 128.114286,14.5127019 128.114286,14.7437491 L128.114286,17.3392208 C128.114286,17.5770792 128.190286,17.7131264 128.389152,17.7131264 C128.5882,17.7131264 128.657143,17.5770792 128.657143,17.3392208 L128.657143,17.0371925 Z" id="Fill-37"></path>
                <path d="M128.503587,13.6850189 C127.858672,13.6850189 127.390549,14.136 127.390549,14.7572642 L127.390549,17.3529151 C127.390549,17.9682642 127.836958,18.3979151 128.476263,18.3979151 C129.015682,18.3979151 129.561977,18.039066 129.561977,17.3529151 L129.561977,17.0372642 L128.838168,17.0372642 L128.838168,17.3392925 C128.838168,17.6466981 128.717653,17.8026415 128.479701,17.8026415 C128.313044,17.8026415 128.114358,17.7221604 128.114358,17.3392925 L128.114358,14.7436415 C128.114358,14.3406981 128.343263,14.2804717 128.479701,14.2804717 C128.643101,14.2804717 128.838168,14.3607736 128.838168,14.7436415 L128.838168,15.6033019 L129.561977,15.6033019 L129.561977,14.7029528 C129.561977,14.1035566 129.126606,13.6850189 128.503587,13.6850189 M128.476263,18.5771604 C127.74232,18.5771604 127.209596,18.0623679 127.209596,17.3529151 L127.209596,14.7572642 C127.209596,14.0438679 127.765844,13.5057736 128.503587,13.5057736 C129.221787,13.5057736 129.74293,14.0092736 129.74293,14.7029528 L129.74293,15.7825472 L128.657215,15.7825472 L128.657215,14.7436415 C128.657215,14.4815849 128.565653,14.459717 128.479701,14.459717 C128.415282,14.459717 128.29531,14.459717 128.29531,14.7436415 L128.29531,17.3392925 C128.29531,17.6015283 128.390491,17.6233962 128.479701,17.6233962 C128.569453,17.6233962 128.657215,17.6015283 128.657215,17.3392925 L128.657215,16.8580189 L129.74293,16.8580189 L129.74293,17.3529151 C129.74293,18.0508962 129.198263,18.5771604 128.476263,18.5771604" id="Fill-39"></path>
                <path d="M130.828571,17.3053075 C130.828571,17.5636 131.064895,17.7130906 131.28439,17.7130906 C131.503886,17.7130906 131.733333,17.5636 131.733333,17.3053075 L131.733333,14.7775906 C131.733333,14.5262887 131.503886,14.3699868 131.28439,14.3699868 C131.064895,14.3699868 130.828571,14.5262887 130.828571,14.7775906 L130.828571,17.3053075 Z M130.104762,14.7912132 C130.104762,14.0643736 130.622467,13.5954679 131.294705,13.5954679 C131.959886,13.5954679 132.457143,14.0371283 132.457143,14.7641472 L132.457143,17.2984962 C132.457143,18.0256943 131.932562,18.4876094 131.2672,18.4876094 C130.601838,18.4876094 130.104762,18.0459491 130.104762,17.3189302 L130.104762,14.7912132 Z" id="Fill-41"></path>
                <path d="M131.374794,14.4596632 C131.19909,14.4596632 131.009451,14.5811915 131.009451,14.7776443 L131.009451,17.3051821 C131.009451,17.5043236 131.19529,17.6233425 131.374794,17.6233425 C131.54869,17.6233425 131.733261,17.5118519 131.733261,17.3051821 L131.733261,14.7776443 C131.733261,14.5811915 131.547242,14.4596632 131.374794,14.4596632 M131.374794,17.8025877 C131.106442,17.8025877 130.828499,17.6165311 130.828499,17.3051821 L130.828499,14.7776443 C130.828499,14.4705972 131.112051,14.2804179 131.374794,14.2804179 C131.63428,14.2804179 131.914213,14.4705972 131.914213,14.7776443 L131.914213,17.3051821 C131.914213,17.6165311 131.64007,17.8025877 131.374794,17.8025877 M131.385109,13.6849651 C130.737661,13.6849651 130.285642,14.1398896 130.285642,14.791267 L130.285642,17.318984 C130.285642,17.964267 130.71649,18.3980406 131.357604,18.3980406 C132.00487,18.3980406 132.45707,17.9458047 132.45707,17.29855 L132.45707,14.7642009 C132.45707,14.1187387 132.026404,13.6849651 131.385109,13.6849651 M131.357604,18.5772858 C130.60828,18.5772858 130.10469,18.0714557 130.10469,17.318984 L130.10469,14.791267 C130.10469,14.0343142 130.631261,13.5057198 131.385109,13.5057198 C132.134432,13.5057198 132.638023,14.01155 132.638023,14.7642009 L132.638023,17.29855 C132.638023,18.03955 132.09969,18.5772858 131.357604,18.5772858" id="Fill-43"></path>
            </g>
        </g>
    </g>
</svg>