<?xml version="1.0" encoding="utf-8"?>
<!-- Generator: Adobe Illustrator 22.0.1, SVG Export Plug-In . SVG Version: 6.00 Build 0)  -->
<svg version="1.1" id="Layer_1" xmlns="http://www.w3.org/2000/svg" xmlns:xlink="http://www.w3.org/1999/xlink" x="0px" y="0px"
	 viewBox="0 0 1107 356" style="enable-background:new 0 0 1107 356;" xml:space="preserve">
<style type="text/css">
	.st0{enable-background:new    ;}
	.st1{fill:#FFFFFF;}
	.st2{fill:#192B49;}
	.st3{fill:#FFE600;}
</style>
<title>Group 9</title>
<desc>Created with Sketch.</desc>
<g id="Event_page-Copy" transform="translate(-168.000000, -231.000000)">
	<g id="Group-9" transform="translate(156.000000, 184.000000)">
		<g id="Group-8">
			<g class="st0">
				<g>
					<path class="st1" d="M57.1,118.8c23.5,0,36.7,13.8,36.7,32.5c0,12.4-7.5,22.4-17.5,25.8c11.7,2.9,21.2,13.6,21.2,28.6
						c0,19.5-14.6,33.7-37.2,33.7H13.8V118.8H57.1z M53.5,168.7c10.7,0,17.2-6,17.2-15.1c0-9.2-5.9-15-17.3-15H36.9v30.1H53.5z
						 M55.9,219.8c11.4,0,18.2-6,18.2-15.6c0-9.5-6.1-16.2-17.8-16.2H36.9v31.8H55.9z"/>
				</g>
				<g>
					<path class="st1" d="M191.6,215.4c-4.2,14.5-17.5,26.5-38.1,26.5c-22.9,0-43.2-16.5-43.2-44.7c0-26.7,19.7-44,41.1-44
						c25.8,0,41.3,16.5,41.3,43.3c0,3.2-0.3,6.6-0.3,7h-59.8c0.5,11,9.9,19,21.1,19c10.5,0,16.3-5.3,19-12.8L191.6,215.4z
						 M170.5,188c-0.3-8.3-5.8-16.5-18.7-16.5c-11.7,0-18.2,8.8-18.7,16.5H170.5z"/>
				</g>
				<g>
					<path class="st1" d="M222.9,211.8c0.5,6.6,5.4,12.8,15.3,12.8c7.5,0,11.1-3.9,11.1-8.3c0-3.7-2.6-6.8-9-8.2l-11-2.6
						c-16.1-3.6-23.5-13.3-23.5-25c0-15,13.3-27.4,31.3-27.4c23.8,0,31.8,15.1,32.8,24.1l-18.9,4.2c-0.7-4.9-4.2-11.2-13.8-11.2
						c-5.9,0-10.7,3.6-10.7,8.3c0,4.1,3.1,6.6,7.6,7.5l11.9,2.5c16.5,3.4,24.8,13.4,24.8,25.7c0,13.6-10.5,27.5-32.5,27.5
						c-25.2,0-33.8-16.3-34.8-25.8L222.9,211.8z"/>
				</g>
				<g>
					<path class="st1" d="M316.9,155.7h16.8v20.1h-16.8v35c0,7.3,3.4,9.7,9.9,9.7c2.7,0,5.8-0.3,7-0.7v18.7c-2,0.8-6.1,2-12.8,2
						c-16.3,0-26.5-9.7-26.5-25.8v-38.9h-15.1v-20.1h4.2c8.8,0,12.9-5.8,12.9-13.3v-11.7h20.4V155.7z"/>
				</g>
				<g>
					<path class="st1" d="M414.1,154c-1.2-6.6-6.6-17-21.9-17c-11.4,0-18.9,7.3-18.9,15.3c0,6.6,4.2,11.9,13.1,13.6l16.8,3.2
						c21.9,4.2,33.7,18.5,33.7,35.5c0,18.5-15.5,37.2-43.5,37.2c-32,0-46.1-20.6-47.9-37.7l21.8-5.8c1,11.9,9.3,22.6,26.3,22.6
						c12.6,0,19.5-6.3,19.5-14.8c0-7-5.3-12.4-14.6-14.3l-16.8-3.4c-19.2-3.9-31.6-16.3-31.6-34.5c0-21.4,19.2-37.7,42-37.7
						c29.2,0,40.5,17.7,43.2,31.3L414.1,154z"/>
				</g>
				<g>
					<path class="st1" d="M529.4,215.4c-4.2,14.5-17.5,26.5-38.1,26.5c-22.9,0-43.2-16.5-43.2-44.7c0-26.7,19.7-44,41.1-44
						c25.8,0,41.3,16.5,41.3,43.3c0,3.2-0.3,6.6-0.3,7h-59.8c0.5,11,9.9,19,21.1,19c10.5,0,16.3-5.3,19-12.8L529.4,215.4z
						 M508.3,188c-0.3-8.3-5.8-16.5-18.7-16.5c-11.7,0-18.2,8.8-18.7,16.5H508.3z"/>
				</g>
				<g>
					<path class="st1" d="M548.4,239.4V116.3H571v123.1H548.4z"/>
				</g>
				<g>
					<path class="st1" d="M622.2,146.6v9.2h18.9v19.4h-18.9v64.3h-22.8v-64.3h-13.9v-19.4h13.9v-9.5c0-18.9,11.9-31.1,30.4-31.1
						c4.8,0,9.4,0.8,11.2,1.7v19c-1.2-0.3-3.4-0.8-7.1-0.8C628.8,135,622.2,137.2,622.2,146.6z"/>
				</g>
			</g>
			<g class="st0">
				<g>
					<path class="st1" d="M548.9,87.9l5.7-12.5l-10.2-21.1h7.3l6.4,14.1l5.9-14.1h7l-15.1,33.6H548.9z"/>
				</g>
				<g>
					<path class="st1" d="M597.3,66.3c0,7.4-5.4,12.8-12.6,12.8c-7.2,0-12.6-5.4-12.6-12.8c0-7.4,5.4-12.8,12.6-12.8
						C591.8,53.5,597.3,58.9,597.3,66.3z M590.7,66.3c0-4.6-2.9-6.9-6.1-6.9c-3.2,0-6.1,2.3-6.1,6.9c0,4.5,2.9,6.9,6.1,6.9
						C587.8,73.2,590.7,70.9,590.7,66.3z"/>
				</g>
				<g>
					<path class="st1" d="M617.9,75.8c-1.3,2.3-4.1,3.2-6.7,3.2c-5.8,0-9.2-4.3-9.2-9.5V54.3h6.5v13.9c0,2.7,1.4,4.9,4.4,4.9
						c2.9,0,4.6-2,4.6-4.8v-14h6.5V74c0,1.9,0.1,3.5,0.2,4.4h-6.2C618,77.9,617.9,76.8,617.9,75.8z"/>
				</g>
				<g>
					<path class="st1" d="M645.7,60.7c-0.7-0.1-1.4-0.2-2-0.2c-3.3,0-6.2,1.6-6.2,6.8v11H631V54.3h6.3v3.6c1.5-3.2,4.8-3.8,6.9-3.8
						c0.5,0,1,0,1.5,0.1V60.7z"/>
				</g>
			</g>
			<g class="st0">
				<g>
					<path class="st2" d="M385.6,349.7v-77.9H409V348c0,15.8,8.8,24.1,22.8,24.1c14.3,0,22.9-8.3,22.9-24.1v-76.2h23.5v77.9
						c0,29.6-20.6,45.4-46.4,45.4C406.1,395.1,385.6,379.3,385.6,349.7z"/>
				</g>
				<g>
					<path class="st2" d="M524.6,392.4H502v-83.6H524v10.4c5.1-8.7,15.1-12.6,24.1-12.6c20.7,0,30.3,14.8,30.3,33.1v52.7h-22.6
						v-48.8c0-9.4-4.6-16.7-15.5-16.7c-9.9,0-15.6,7.6-15.6,17.3V392.4z"/>
				</g>
				<g>
					<path class="st2" d="M601.3,392.4V269.3h22.6v123.1H601.3z"/>
				</g>
				<g>
					<path class="st2" d="M729.5,350.6c0,25.7-18.9,44.4-43.9,44.4s-43.9-18.7-43.9-44.4c0-25.8,18.9-44.4,43.9-44.4
						S729.5,324.7,729.5,350.6z M706.9,350.6c0-15.8-10.2-23.8-21.2-23.8c-11.1,0-21.2,8-21.2,23.8c0,15.6,10.2,23.8,21.2,23.8
						C696.7,374.4,706.9,366.4,706.9,350.6z"/>
				</g>
				<g>
					<path class="st2" d="M763.7,350.6c0,15.1,9.9,23.6,21.4,23.6s17.3-7.7,19.2-14.1l19.9,6.6c-3.7,13.9-16.8,28.2-39.1,28.2
						c-24.6,0-44-18.7-44-44.4c0-25.8,19-44.4,43.3-44.4c22.8,0,35.7,14.1,39.3,28.2l-20.2,6.8c-2-7-7.3-14.1-18.5-14.1
						C773.3,327.1,763.7,335.4,763.7,350.6z"/>
				</g>
				<g>
					<path class="st2" d="M888.4,343.9l34.2,48.4h-27.7l-22.1-32l-9.3,9.9v22.1h-22.6V269.3h22.6v70.5l28.9-31.1h29.6L888.4,343.9z"
						/>
				</g>
				<g>
					<path class="st2" d="M1007.1,368.4c-4.2,14.5-17.5,26.5-38.1,26.5c-23,0-43.2-16.5-43.2-44.7c0-26.7,19.7-44,41.1-44
						c25.8,0,41.3,16.5,41.3,43.3c0,3.2-0.3,6.6-0.3,7h-59.8c0.5,11,9.9,19,21.1,19c10.5,0,16.3-5.3,19-12.8L1007.1,368.4z M986,341
						c-0.3-8.3-5.8-16.5-18.7-16.5c-11.7,0-18.2,8.8-18.7,16.5H986z"/>
				</g>
				<g>
					<path class="st2" d="M1105.9,377.2c0,5.6,0.3,11.7,0.7,15.1H1085c-0.3-1.7-0.9-5.8-0.9-9.7c-3.7,6.6-12.2,11.7-23.5,11.7
						c-23.8,0-40.8-18.7-40.8-44c0-24.5,16.5-43.7,40.1-43.7c14.5,0,21.2,5.9,23.6,10.4v-47.8h22.3V377.2z M1063.4,374.2
						c11.6,0,20.6-8.8,20.6-24c0-15-9-23.3-20.6-23.3c-11.6,0-20.7,8.5-20.7,23.5S1051.5,374.2,1063.4,374.2z"/>
				</g>
			</g>
			<g class="st0">
				<g>
					<path class="st3" d="M431.8,395.6c-13.1,0-24.8-4.2-33.1-11.7c-8.9-8.2-13.7-20-13.7-34.2v-78.4h24.5V348
						c0,15,8.1,23.6,22.3,23.6c14.5,0,22.4-8.4,22.4-23.6v-76.7h24.5v78.4C478.7,377.6,460.3,395.6,431.8,395.6z M386.1,272.3v77.4
						c0,27.3,18,44.9,45.7,44.9c27.9,0,45.9-17.6,45.9-44.9v-77.4h-22.5V348c0,15.7-8.5,24.6-23.4,24.6c-14.8,0-23.3-9-23.3-24.6
						v-75.7H386.1z"/>
				</g>
				<g>
					<path class="st3" d="M578.9,392.9h-23.6v-49.3c0-10.3-5.5-16.2-15-16.2c-9.1,0-15.1,6.8-15.1,16.8v48.6h-23.6v-84.6h22.9v9.2
						c5.8-8.3,15.8-11.4,23.6-11.4c19,0,30.8,12.9,30.8,33.6V392.9z M556.2,391.9h21.6v-52.2c0-20.4-11.1-32.6-29.8-32.6
						c-8,0-18.4,3.2-23.7,12.3l-0.9,1.6v-11.7h-20.9v82.6h21.6v-47.6c0-10.7,6.5-17.8,16.1-17.8c10.1,0,16,6.3,16,17.2V391.9z"/>
				</g>
				<g>
					<path class="st3" d="M624.4,392.9h-23.6V268.8h23.6V392.9z M601.8,391.9h21.6V269.8h-21.6V391.9z"/>
				</g>
				<g>
					<path class="st3" d="M685.6,395.4c-25.3,0-44.4-19.3-44.4-44.9c0-26,18.7-44.9,44.4-44.9s44.4,18.9,44.4,44.9
						C730,376.1,710.9,395.4,685.6,395.4z M685.6,306.7c-25.1,0-43.4,18.5-43.4,43.9c0,12.2,4.4,23.4,12.4,31.5
						c8,8,19,12.4,30.9,12.4s23-4.4,30.9-12.4c8-8,12.4-19.2,12.4-31.5C729,325.1,710.8,306.7,685.6,306.7z M685.6,374.9
						c-10.5,0-21.8-7.6-21.8-24.3c0-16.8,10.9-24.3,21.8-24.3c5.8,0,11.2,2.2,15.1,6.1c4.3,4.4,6.6,10.7,6.6,18.2
						s-2.3,13.8-6.6,18.2C696.8,372.7,691.5,374.9,685.6,374.9z M685.6,327.3c-10.3,0-20.8,7.2-20.8,23.3c0,11.2,6.5,23.3,20.8,23.3
						c10.3,0,20.8-7.2,20.8-23.3S696,327.3,685.6,327.3z"/>
				</g>
				<g>
					<path class="st3" d="M785.1,395.4c-25.4,0-44.5-19.3-44.5-44.9s18.9-44.9,43.8-44.9c10.6,0,20,3.1,27.2,8.9
						c6.2,5,10.7,12,12.6,19.7l0.1,0.4l-21.2,7.1l-0.1-0.5c-1.5-5.1-5.8-13.8-18.1-13.8c-10.3,0-20.8,7.1-20.8,23
						c0,13.6,8.6,23.1,20.9,23.1c10.9,0,16.8-7.1,18.7-13.7l0.1-0.5l20.8,6.9l-0.1,0.5C821.1,380,808.6,395.4,785.1,395.4z
						 M784.4,306.7c-24.4,0-42.8,18.9-42.8,43.9s18.7,43.9,43.5,43.9c22.7,0,34.9-14.7,38.5-27.4l-19-6.3c-2.2,6.8-8.4,14-19.5,14
						c-12.9,0-21.9-9.9-21.9-24.1c0-16.6,10.9-24,21.8-24c12.5,0,17.1,8.5,18.9,14l19.3-6.5C817.7,313.9,798.9,306.7,784.4,306.7z"
						/>
				</g>
				<g>
					<path class="st3" d="M923.6,392.9h-28.9l-21.9-31.7l-8.8,9.3v22.4h-23.6V268.8h23.6v69.8l28.2-30.3h31l-34,35.7L923.6,392.9z
						 M895.2,391.9h26.5l-33.8-48l33-34.6h-28.2l-29.6,31.9v-71.3h-21.6v122.1h21.6v-21.8l9.9-10.5L895.2,391.9z"/>
				</g>
				<g>
					<path class="st3" d="M969,395.4c-11.7,0-22.6-4.2-30.5-11.9c-8.6-8.3-13.1-19.8-13.1-33.3c0-12.6,4.5-24.1,12.7-32.4
						c7.8-7.8,18.1-12.2,29-12.2c12.8,0,23.4,4.1,30.7,11.8c7.3,7.7,11.1,18.8,11.1,32.1c0,2.5-0.2,5-0.3,6.3c0,0.4,0,0.6,0,0.7v0.5
						h-59.8c0.8,10.3,9.5,18,20.5,18c9.3,0,15.6-4.2,18.6-12.4l0.2-0.4l19.8,5.9l-0.1,0.5C1003.8,381.5,991.6,395.4,969,395.4z
						 M967,306.7c-25.4,0-40.6,22.1-40.6,43.5c0,22,14.7,44.2,42.7,44.2c21.8,0,33.6-13.2,37.5-25.7l-17.9-5.3
						c-3.2,8.4-9.7,12.6-19.3,12.6c-11.8,0-21.1-8.4-21.6-19.5l0-0.5h59.9c0-0.1,0-0.2,0-0.3c0.1-1.2,0.3-3.8,0.3-6.2
						C1007.8,322.7,992.5,306.7,967,306.7z M986.5,341.5h-38.5l0-0.5c0.5-8.2,7.5-17,19.2-17c13.6,0,18.9,8.8,19.2,17L986.5,341.5z
						 M949.2,340.5h36.3C985,333,980,325,967.3,325C956.4,325,949.9,332.9,949.2,340.5z"/>
				</g>
				<g>
					<path class="st3" d="M1060.6,394.9c-23.9,0-41.3-18.7-41.3-44.5c0-25.2,17.5-44.2,40.6-44.2c14.4,0,20.7,5.9,23.1,9.2v-46.6
						h23.3v108.4c0,5.7,0.4,11.8,0.7,15.1l0.1,0.5h-22.6l-0.1-0.4c-0.3-1.4-0.7-4.7-0.8-8.1C1079.1,390.9,1070.5,394.9,1060.6,394.9
						z M1060,307.2c-23,0-39.6,18.2-39.6,43.2c0,25.2,16.9,43.5,40.3,43.5c10.2,0,19-4.4,23-11.5l0.9-1.7v1.9c0,3.6,0.4,7.4,0.8,9.2
						h20.6c-0.3-3.4-0.6-9.2-0.6-14.6V269.8h-21.3v47.3l-0.9,0.2C1081.9,314.9,1076.4,307.2,1060,307.2z M1063.4,374.7
						c-12.7,0-21.2-9.8-21.2-24.3c0-16.6,10.7-24,21.2-24c12.6,0,21.1,9.6,21.1,23.8C1084.4,364.9,1076,374.7,1063.4,374.7z
						 M1063.4,327.4c-12.1,0-20.2,9.2-20.2,23c0,13.9,8.1,23.3,20.2,23.3c12,0,20.1-9.4,20.1-23.5
						C1083.4,336.4,1075.6,327.4,1063.4,327.4z"/>
				</g>
			</g>
			<g class="st0">
				<g>
					<path class="st3" d="M393.6,340.7v-77.9H417V339c0,15.8,8.8,24.1,22.8,24.1c14.3,0,22.9-8.3,22.9-24.1v-76.2h23.5v77.9
						c0,29.6-20.6,45.4-46.4,45.4C414.1,386.1,393.6,370.3,393.6,340.7z"/>
				</g>
				<g>
					<path class="st3" d="M532.6,383.4H510v-83.6H532v10.4c5.1-8.7,15.1-12.6,24.1-12.6c20.7,0,30.3,14.8,30.3,33.1v52.7h-22.6
						v-48.8c0-9.4-4.6-16.7-15.5-16.7c-9.9,0-15.6,7.6-15.6,17.3V383.4z"/>
				</g>
				<g>
					<path class="st3" d="M609.3,383.4V260.3h22.6v123.1H609.3z"/>
				</g>
				<g>
					<path class="st3" d="M737.5,341.6c0,25.7-18.9,44.4-43.9,44.4s-43.9-18.7-43.9-44.4c0-25.8,18.9-44.4,43.9-44.4
						S737.5,315.7,737.5,341.6z M714.9,341.6c0-15.8-10.2-23.8-21.2-23.8c-11.1,0-21.2,8-21.2,23.8c0,15.6,10.2,23.8,21.2,23.8
						C704.7,365.4,714.9,357.4,714.9,341.6z"/>
				</g>
				<g>
					<path class="st3" d="M771.7,341.6c0,15.1,9.9,23.6,21.4,23.6s17.3-7.7,19.2-14.1l19.9,6.6c-3.7,13.9-16.8,28.2-39.1,28.2
						c-24.6,0-44-18.7-44-44.4c0-25.8,19-44.4,43.3-44.4c22.8,0,35.7,14.1,39.3,28.2l-20.2,6.8c-2-7-7.3-14.1-18.5-14.1
						C781.3,318.1,771.7,326.4,771.7,341.6z"/>
				</g>
				<g>
					<path class="st3" d="M896.4,334.9l34.2,48.4h-27.7l-22.1-32l-9.3,9.9v22.1h-22.6V260.3h22.6v70.5l28.9-31.1h29.6L896.4,334.9z"
						/>
				</g>
				<g>
					<path class="st3" d="M1015.1,359.4c-4.2,14.5-17.5,26.5-38.1,26.5c-23,0-43.2-16.5-43.2-44.7c0-26.7,19.7-44,41.1-44
						c25.8,0,41.3,16.5,41.3,43.3c0,3.2-0.3,6.6-0.3,7h-59.8c0.5,11,9.9,19,21.1,19c10.5,0,16.3-5.3,19-12.8L1015.1,359.4z M994,332
						c-0.3-8.3-5.8-16.5-18.7-16.5c-11.7,0-18.2,8.8-18.7,16.5H994z"/>
				</g>
				<g>
					<path class="st3" d="M1113.9,368.2c0,5.6,0.3,11.7,0.7,15.1H1093c-0.3-1.7-0.9-5.8-0.9-9.7c-3.7,6.6-12.2,11.7-23.5,11.7
						c-23.8,0-40.8-18.7-40.8-44c0-24.5,16.5-43.7,40.1-43.7c14.5,0,21.2,5.9,23.6,10.4v-47.8h22.3V368.2z M1071.4,365.2
						c11.6,0,20.6-8.8,20.6-24c0-15-9-23.3-20.6-23.3c-11.6,0-20.7,8.5-20.7,23.5S1059.5,365.2,1071.4,365.2z"/>
				</g>
			</g>
		</g>
	</g>
</g>
</svg>
